<!DOCTYPE svg PUBLIC "-//W3C//DTD SVG 1.1//EN" "http://www.w3.org/Graphics/SVG/1.1/DTD/svg11.dtd">
<!-- Uploaded to: SVG Repo, www.svgrepo.com, Transformed by: SVG Repo Mixer Tools -->
<svg fill="#FFDB6D" width="800px" height="800px" viewBox="-102.4 -102.4 1228.80 1228.80" xmlns="http://www.w3.org/2000/svg" stroke="#FFDB6D" stroke-width="0.01024" transform="matrix(1, 0, 0, 1, 0, 0)">
<g id="SVGRepo_bgCarrier" stroke-width="0"/>
<g id="SVGRepo_tracerCarrier" stroke-linecap="round" stroke-linejoin="round" stroke="#CCCCCC" stroke-width="2.048"/>
<g id="SVGRepo_iconCarrier">
<path d="M957.442 547.84h56.32c11.311 0 20.48-9.169 20.48-20.48s-9.169-20.48-20.48-20.48h-56.32c-11.311 0-20.48 9.169-20.48 20.48s9.169 20.48 20.48 20.48zm-630.79 0h389.13c11.311 0 20.48-9.169 20.48-20.48s-9.169-20.48-20.48-20.48h-389.13c-11.311 0-20.48 9.169-20.48 20.48s9.169 20.48 20.48 20.48zm-295.932 0h56.32c11.311 0 20.48-9.169 20.48-20.48s-9.169-20.48-20.48-20.48H30.72c-11.311 0-20.48 9.169-20.48 20.48s9.169 20.48 20.48 20.48z"/>
<path d="M788.48 788.48c-39.471 0-71.68-32.209-71.68-71.68V337.92c0-39.471 32.209-71.68 71.68-71.68s71.68 32.209 71.68 71.68V716.8c0 39.471-32.209 71.68-71.68 71.68zm0-40.96c16.849 0 30.72-13.871 30.72-30.72V337.92c0-16.849-13.871-30.72-30.72-30.72s-30.72 13.871-30.72 30.72V716.8c0 16.849 13.871 30.72 30.72 30.72z"/>
<path d="M890.88 650.24c-39.471 0-71.68-32.209-71.68-71.68v-102.4c0-39.471 32.209-71.68 71.68-71.68s71.68 32.209 71.68 71.68v102.4c0 39.471-32.209 71.68-71.68 71.68zm0-40.96c16.849 0 30.72-13.871 30.72-30.72v-102.4c0-16.849-13.871-30.72-30.72-30.72s-30.72 13.871-30.72 30.72v102.4c0 16.849 13.871 30.72 30.72 30.72zM256 747.52c16.849 0 30.72-13.871 30.72-30.72V337.92c0-16.849-13.871-30.72-30.72-30.72s-30.72 13.871-30.72 30.72V716.8c0 16.849 13.871 30.72 30.72 30.72zm0 40.96c-39.471 0-71.68-32.209-71.68-71.68V337.92c0-39.471 32.209-71.68 71.68-71.68s71.68 32.209 71.68 71.68V716.8c0 39.471-32.209 71.68-71.68 71.68z"/>
<path d="M153.6 609.28c16.849 0 30.72-13.871 30.72-30.72v-102.4c0-16.849-13.871-30.72-30.72-30.72s-30.72 13.871-30.72 30.72v102.4c0 16.849 13.871 30.72 30.72 30.72zm0 40.96c-39.471 0-71.68-32.209-71.68-71.68v-102.4c0-39.471 32.209-71.68 71.68-71.68s71.68 32.209 71.68 71.68v102.4c0 39.471-32.209 71.68-71.68 71.68z"/>
</g>
</svg>