<!DOCTYPE svg PUBLIC "-//W3C//DTD SVG 1.1//EN" "http://www.w3.org/Graphics/SVG/1.1/DTD/svg11.dtd">
<!-- Uploaded to: SVG Repo, www.svgrepo.com, Transformed by: SVG Repo Mixer Tools -->
<svg fill="#FFC362" version="1.1" id="Layer_1" xmlns="http://www.w3.org/2000/svg" xmlns:xlink="http://www.w3.org/1999/xlink" viewBox="0 0 480 480" xml:space="preserve" width="800px" height="800px">
<g id="SVGRepo_bgCarrier" stroke-width="0"/>
<g id="SVGRepo_tracerCarrier" stroke-linecap="round" stroke-linejoin="round"/>
<g id="SVGRepo_iconCarrier"> <g> <g> <path d="M176,304c-26.472,0-48,21.528-48,48s21.528,48,48,48s48-21.528,48-48S202.472,304,176,304z M176,384 c-17.648,0-32-14.352-32-32s14.352-32,32-32s32,14.352,32,32S193.648,384,176,384z"/> </g> </g> <g> <g> <path d="M176,80c-26.472,0-48,21.528-48,48s21.528,48,48,48s48-21.528,48-48S202.472,80,176,80z M176,160 c-17.648,0-32-14.352-32-32s14.352-32,32-32s32,14.352,32,32S193.648,160,176,160z"/> </g> </g> <g> <g> <path d="M48,304c-26.472,0-48,21.528-48,48s21.528,48,48,48s48-21.528,48-48S74.472,304,48,304z M48,384 c-17.648,0-32-14.352-32-32s14.352-32,32-32s32,14.352,32,32S65.648,384,48,384z"/> </g> </g> <g> <g> <path d="M48,80c-26.472,0-48,21.528-48,48s21.528,48,48,48s48-21.528,48-48S74.472,80,48,80z M48,160c-17.648,0-32-14.352-32-32 s14.352-32,32-32s32,14.352,32,32S65.648,160,48,160z"/> </g> </g> <g> <g> <path d="M304,192c-26.472,0-48,21.528-48,48s21.528,48,48,48s48-21.528,48-48S330.472,192,304,192z M304,272 c-17.648,0-32-14.352-32-32s14.352-32,32-32s32,14.352,32,32S321.648,272,304,272z"/> </g> </g> <g> <g> <path d="M304,304c-26.472,0-48,21.528-48,48s21.528,48,48,48s48-21.528,48-48S330.472,304,304,304z M304,384 c-17.648,0-32-14.352-32-32s14.352-32,32-32s32,14.352,32,32S321.648,384,304,384z"/> </g> </g> <g> <g> <path d="M456,254.496V152V96v-8c0-2.712-1.368-5.232-3.64-6.712c-2.272-1.472-5.136-1.696-7.608-0.6l-72,32 C369.856,113.976,368,116.832,368,120c0,3.168,1.856,6.024,4.752,7.312L440,157.2v91.52c-2.608-0.44-5.272-0.72-8-0.72 c-10.056,0-19.392,3.12-27.112,8.432L345.36,152.248c4.192-7.128,6.64-15.4,6.64-24.248c0-26.472-21.528-48-48-48 s-48,21.528-48,48c0,7.968,1.984,15.472,5.432,22.088l-61.88,48.128C192.584,194.28,184.56,192,176,192 c-23.736,0-43.448,17.336-47.28,40H95.28c-3.824-22.664-23.536-40-47.28-40c-26.472,0-48,21.528-48,48s21.528,48,48,48 c23.736,0,43.448-17.336,47.28-40h33.448c3.824,22.664,23.536,40,47.28,40c26.472,0,48-21.528,48-48 c0-12-4.456-22.96-11.76-31.384l58.848-45.768C279.688,170.976,291.256,176,304,176c11.488,0,22.04-4.064,30.312-10.824 l58.736,102.792l0.104-0.064C387.424,275.816,384,285.504,384,296c0,26.472,21.528,48,48,48s48-21.528,48-48 C480,278.28,470.32,262.808,456,254.496z M48,272c-17.648,0-32-14.352-32-32s14.352-32,32-32s32,14.352,32,32S65.648,272,48,272z M176,272c-17.648,0-32-14.352-32-32s14.352-32,32-32s32,14.352,32,32S193.648,272,176,272z M304,160c-17.648,0-32-14.352-32-32 s14.352-32,32-32s32,14.352,32,32S321.648,160,304,160z M395.696,120L440,100.312v39.376L395.696,120z M432,328 c-17.648,0-32-14.352-32-32s14.352-32,32-32c2.776,0,5.424,0.464,8,1.136V296h16v-20.944c4.92,5.624,8,12.896,8,20.944 C464,313.648,449.648,328,432,328z"/> </g> </g> <g> <g> <rect x="392" y="360" width="16" height="16"/> </g> </g> <g> <g> <rect x="424" y="360" width="16" height="16"/> </g> </g> <g> <g> <rect x="456" y="360" width="16" height="16"/> </g> </g> </g>
</svg>